<?xml version="1.0" encoding="utf-8"?>
<svg xmlns="http://www.w3.org/2000/svg" xmlns:xlink="http://www.w3.org/1999/xlink" style="margin: auto; background: rgb(255, 255, 255); display: block; shape-rendering: crispedges;" width="210px" height="210px" viewBox="0 0 100 100" preserveAspectRatio="xMidYMid">
<g transform="translate(50 50)">
<g transform="rotate(10.5509)">
<animateTransform attributeName="transform" type="rotate" values="0;45" keyTimes="0;1" dur="0.2s" repeatCount="indefinite"></animateTransform><path d="M27.549954627911823 -5 L36.54995462791182 -5 L36.54995462791182 5 L27.549954627911823 5 A28 28 0 0 1 23.016293644710895 15.945225832845416 L23.016293644710895 15.945225832845416 L29.380254675389825 22.309186863524346 L22.30918686352435 29.38025467538982 L15.94522583284542 23.016293644710895 A28 28 0 0 1 5.000000000000002 27.549954627911823 L5.000000000000002 27.549954627911823 L5.000000000000003 36.54995462791182 L-4.999999999999997 36.54995462791182 L-4.999999999999998 27.549954627911823 A28 28 0 0 1 -15.94522583284542 23.016293644710892 L-15.94522583284542 23.016293644710892 L-22.309186863524346 29.38025467538982 L-29.380254675389814 22.309186863524356 L-23.01629364471089 15.945225832845427 A28 28 0 0 1 -27.549954627911823 4.999999999999998 L-27.549954627911823 4.999999999999998 L-36.54995462791182 4.999999999999999 L-36.54995462791182 -4.99999999999999 L-27.549954627911823 -4.999999999999991 A28 28 0 0 1 -23.016293644710895 -15.94522583284542 L-23.016293644710895 -15.94522583284542 L-29.380254675389825 -22.309186863524346 L-22.309186863524356 -29.380254675389814 L-15.945225832845427 -23.01629364471089 A28 28 0 0 1 -4.999999999999999 -27.549954627911823 L-4.999999999999999 -27.549954627911823 L-5.000000000000001 -36.54995462791182 L4.999999999999988 -36.54995462791182 L4.999999999999989 -27.549954627911823 A28 28 0 0 1 15.94522583284542 -23.016293644710895 L15.94522583284542 -23.016293644710895 L22.309186863524346 -29.380254675389825 L29.380254675389814 -22.30918686352436 L23.01629364471089 -15.94522583284543 A28 28 0 0 1 27.549954627911823 -5.000000000000001 M0 -21A21 21 0 1 0 0 21 A21 21 0 1 0 0 -21" fill="#1100ff"></path></g></g>
<!-- [ldio] generated by https://loading.io/ --></svg>